<?xml version="1.0" encoding="utf-8"?>
<!-- Generator: Adobe Illustrator 16.0.0, SVG Export Plug-In . SVG Version: 6.00 Build 0)  -->
<!DOCTYPE svg PUBLIC "-//W3C//DTD SVG 1.1//EN" "http://www.w3.org/Graphics/SVG/1.1/DTD/svg11.dtd">
<svg version="1.1" id="Capa_1" xmlns="http://www.w3.org/2000/svg" xmlns:xlink="http://www.w3.org/1999/xlink" x="0px" y="0px"
	 width="50px" height="50px" viewBox="0 0 50 50" enable-background="new 0 0 50 50" xml:space="preserve">
<path fill="#AF336D" d="M25.002,0C11.195,0,0.001,11.194,0.001,24.999c0,13.807,11.194,25,25.001,25
	c13.808,0,24.997-11.193,24.997-25C49.999,11.194,38.81,0,25.002,0z M16.981,36.563h-4.354v-4.354h4.354V36.563z M16.981,27.856
	h-4.354v-4.354h4.354V27.856z M16.981,19.149h-4.354v-4.354h4.354V19.149z M36.573,36.563H19.158v-4.354h17.415V36.563z
	 M36.573,27.856H19.158v-4.354h17.415V27.856z M36.573,19.149H19.158v-4.354h17.415V19.149z"/>
</svg>
