<?xml version="1.0" encoding="utf-8"?>
<!-- Generator: Adobe Illustrator 16.0.0, SVG Export Plug-In . SVG Version: 6.00 Build 0)  -->
<!DOCTYPE svg PUBLIC "-//W3C//DTD SVG 1.1//EN" "http://www.w3.org/Graphics/SVG/1.1/DTD/svg11.dtd">
<svg version="1.1" id="Capa_1" xmlns="http://www.w3.org/2000/svg" xmlns:xlink="http://www.w3.org/1999/xlink" x="0px" y="0px"
	 width="50px" height="50px" viewBox="0 0 50 50" enable-background="new 0 0 50 50" xml:space="preserve">
<g>
	<path fill="#333333" d="M33.912,6.712v7.78l6.713-0.97v-6.81C40.625,3.02,37.604,0,33.912,0l0,0H6.85
		C3.158,0,0.137,3.02,0.137,6.712v27.063c0,3.691,3.021,6.713,6.713,6.713h6.357l-0.238-6.713c0,0-7.391-0.209-6.119,0V6.712H33.912
		"/>
	<path fill="#333333" d="M43.15,16.224v27.063H16.089V16.224H43.15 M43.15,9.51H16.089c-3.692,0-6.713,3.021-6.713,6.713v27.063
		c0,3.693,3.021,6.713,6.713,6.713H43.15c3.692,0,6.713-3.02,6.713-6.713V16.224C49.863,12.531,46.844,9.51,43.15,9.51L43.15,9.51z"
		/>
</g>
</svg>
